<mxfile host="app.diagrams.net" agent="Mozilla/5.0 (X11; Linux x86_64) AppleWebKit/537.36 (KHTML, like Gecko) Chrome/130.0.0.0 Safari/537.36" version="24.8.4">
  <diagram name="PÃ¡gina-1" id="0LtnSC1S1MljCSVt5p4q">
    <mxGraphModel dx="1434" dy="754" grid="1" gridSize="10" guides="1" tooltips="1" connect="0" arrows="1" fold="1" page="1" pageScale="1" pageWidth="827" pageHeight="1169" math="0" shadow="0">
      <root>
        <mxCell id="0" />
        <mxCell id="1" parent="0" />
        <mxCell id="zIQO2QtqG7fg5_mSGysL-1" value="" style="rounded=0;whiteSpace=wrap;html=1;" parent="1" vertex="1">
          <mxGeometry x="44" y="80" width="740" height="1070" as="geometry" />
        </mxCell>
        <mxCell id="zIQO2QtqG7fg5_mSGysL-7" style="edgeStyle=orthogonalEdgeStyle;rounded=0;orthogonalLoop=1;jettySize=auto;html=1;entryX=0;entryY=0.5;entryDx=0;entryDy=0;endArrow=none;endFill=0;" parent="1" source="zIQO2QtqG7fg5_mSGysL-2" target="zIQO2QtqG7fg5_mSGysL-4" edge="1">
          <mxGeometry relative="1" as="geometry" />
        </mxCell>
        <mxCell id="zIQO2QtqG7fg5_mSGysL-2" value="FACTURA" style="rounded=0;whiteSpace=wrap;html=1;" parent="1" vertex="1">
          <mxGeometry x="114" y="364" width="140" height="60" as="geometry" />
        </mxCell>
        <mxCell id="zIQO2QtqG7fg5_mSGysL-3" value="PRODUCTO" style="rounded=0;whiteSpace=wrap;html=1;" parent="1" vertex="1">
          <mxGeometry x="604" y="364" width="120" height="60" as="geometry" />
        </mxCell>
        <mxCell id="zIQO2QtqG7fg5_mSGysL-9" style="edgeStyle=orthogonalEdgeStyle;rounded=0;orthogonalLoop=1;jettySize=auto;html=1;entryX=0;entryY=0.5;entryDx=0;entryDy=0;endArrow=none;endFill=0;" parent="1" source="zIQO2QtqG7fg5_mSGysL-4" target="zIQO2QtqG7fg5_mSGysL-3" edge="1">
          <mxGeometry relative="1" as="geometry" />
        </mxCell>
        <mxCell id="zIQO2QtqG7fg5_mSGysL-4" value="almacenar" style="rhombus;whiteSpace=wrap;html=1;rounded=0;" parent="1" vertex="1">
          <mxGeometry x="360" y="352" width="130" height="84" as="geometry" />
        </mxCell>
        <mxCell id="zIQO2QtqG7fg5_mSGysL-14" value="" style="endArrow=none;html=1;rounded=0;entryX=0;entryY=0.5;entryDx=0;entryDy=0;" parent="1" target="zIQO2QtqG7fg5_mSGysL-15" edge="1">
          <mxGeometry width="50" height="50" relative="1" as="geometry">
            <mxPoint x="115" y="364" as="sourcePoint" />
            <mxPoint x="115" y="339" as="targetPoint" />
          </mxGeometry>
        </mxCell>
        <mxCell id="zIQO2QtqG7fg5_mSGysL-15" value="&lt;b&gt;&lt;u&gt;num_factura&lt;/u&gt;&lt;/b&gt;" style="ellipse;whiteSpace=wrap;html=1;rotation=-90;" parent="1" vertex="1">
          <mxGeometry x="60" y="264" width="110" height="30" as="geometry" />
        </mxCell>
        <mxCell id="zIQO2QtqG7fg5_mSGysL-16" value="" style="endArrow=none;html=1;rounded=0;entryX=0;entryY=0.5;entryDx=0;entryDy=0;" parent="1" edge="1">
          <mxGeometry width="50" height="50" relative="1" as="geometry">
            <mxPoint x="150" y="364" as="sourcePoint" />
            <mxPoint x="150" y="334" as="targetPoint" />
          </mxGeometry>
        </mxCell>
        <mxCell id="zIQO2QtqG7fg5_mSGysL-17" value="dni_cliente" style="ellipse;whiteSpace=wrap;html=1;rotation=-90;" parent="1" vertex="1">
          <mxGeometry x="95" y="264" width="110" height="30" as="geometry" />
        </mxCell>
        <mxCell id="zIQO2QtqG7fg5_mSGysL-18" value="" style="endArrow=none;html=1;rounded=0;entryX=0;entryY=0.5;entryDx=0;entryDy=0;" parent="1" target="zIQO2QtqG7fg5_mSGysL-19" edge="1">
          <mxGeometry width="50" height="50" relative="1" as="geometry">
            <mxPoint x="185" y="364" as="sourcePoint" />
            <mxPoint x="185" y="339" as="targetPoint" />
          </mxGeometry>
        </mxCell>
        <mxCell id="zIQO2QtqG7fg5_mSGysL-19" value="nombre_cliente" style="ellipse;whiteSpace=wrap;html=1;rotation=-90;" parent="1" vertex="1">
          <mxGeometry x="130" y="264" width="110" height="30" as="geometry" />
        </mxCell>
        <mxCell id="zIQO2QtqG7fg5_mSGysL-20" value="" style="endArrow=none;html=1;rounded=0;entryX=0;entryY=0.5;entryDx=0;entryDy=0;" parent="1" target="zIQO2QtqG7fg5_mSGysL-21" edge="1">
          <mxGeometry width="50" height="50" relative="1" as="geometry">
            <mxPoint x="219" y="364" as="sourcePoint" />
            <mxPoint x="219" y="339" as="targetPoint" />
          </mxGeometry>
        </mxCell>
        <mxCell id="zIQO2QtqG7fg5_mSGysL-21" value="fecha_factura" style="ellipse;whiteSpace=wrap;html=1;rotation=-90;" parent="1" vertex="1">
          <mxGeometry x="164" y="264" width="110" height="30" as="geometry" />
        </mxCell>
        <mxCell id="zIQO2QtqG7fg5_mSGysL-23" value="" style="endArrow=none;html=1;rounded=0;entryX=0;entryY=0.5;entryDx=0;entryDy=0;" parent="1" target="zIQO2QtqG7fg5_mSGysL-24" edge="1">
          <mxGeometry width="50" height="50" relative="1" as="geometry">
            <mxPoint x="253" y="364" as="sourcePoint" />
            <mxPoint x="253" y="339" as="targetPoint" />
          </mxGeometry>
        </mxCell>
        <mxCell id="zIQO2QtqG7fg5_mSGysL-24" value="importe_total" style="ellipse;whiteSpace=wrap;html=1;rotation=-90;dashed=1;" parent="1" vertex="1">
          <mxGeometry x="198" y="264" width="110" height="30" as="geometry" />
        </mxCell>
        <mxCell id="zIQO2QtqG7fg5_mSGysL-27" value="" style="endArrow=none;html=1;rounded=0;entryX=0;entryY=0.5;entryDx=0;entryDy=0;" parent="1" edge="1">
          <mxGeometry width="50" height="50" relative="1" as="geometry">
            <mxPoint x="604" y="454" as="sourcePoint" />
            <mxPoint x="604" y="424" as="targetPoint" />
          </mxGeometry>
        </mxCell>
        <mxCell id="zIQO2QtqG7fg5_mSGysL-28" value="&lt;b&gt;&lt;u&gt;cod_producto&lt;/u&gt;&lt;/b&gt;" style="ellipse;whiteSpace=wrap;html=1;rotation=-90;" parent="1" vertex="1">
          <mxGeometry x="549" y="494" width="110" height="30" as="geometry" />
        </mxCell>
        <mxCell id="zIQO2QtqG7fg5_mSGysL-29" value="" style="endArrow=none;html=1;rounded=0;entryX=0;entryY=0.5;entryDx=0;entryDy=0;" parent="1" edge="1">
          <mxGeometry width="50" height="50" relative="1" as="geometry">
            <mxPoint x="639" y="454" as="sourcePoint" />
            <mxPoint x="639" y="424" as="targetPoint" />
          </mxGeometry>
        </mxCell>
        <mxCell id="zIQO2QtqG7fg5_mSGysL-30" value="nombre_producto" style="ellipse;whiteSpace=wrap;html=1;rotation=-90;" parent="1" vertex="1">
          <mxGeometry x="584" y="494" width="110" height="30" as="geometry" />
        </mxCell>
        <mxCell id="zIQO2QtqG7fg5_mSGysL-31" value="" style="endArrow=none;html=1;rounded=0;entryX=0;entryY=0.5;entryDx=0;entryDy=0;" parent="1" edge="1">
          <mxGeometry width="50" height="50" relative="1" as="geometry">
            <mxPoint x="675" y="454" as="sourcePoint" />
            <mxPoint x="675" y="424" as="targetPoint" />
          </mxGeometry>
        </mxCell>
        <mxCell id="zIQO2QtqG7fg5_mSGysL-32" value="precio_unitario" style="ellipse;whiteSpace=wrap;html=1;rotation=-90;" parent="1" vertex="1">
          <mxGeometry x="620" y="494" width="110" height="30" as="geometry" />
        </mxCell>
        <mxCell id="zIQO2QtqG7fg5_mSGysL-33" value="&lt;font style=&quot;font-size: 14px;&quot;&gt;N : M&lt;/font&gt;" style="text;html=1;align=center;verticalAlign=middle;whiteSpace=wrap;rounded=0;" parent="1" vertex="1">
          <mxGeometry x="389" y="434" width="70" height="40" as="geometry" />
        </mxCell>
        <mxCell id="zIQO2QtqG7fg5_mSGysL-34" value="(1, n)" style="text;html=1;align=center;verticalAlign=middle;whiteSpace=wrap;rounded=0;" parent="1" vertex="1">
          <mxGeometry x="264" y="354" width="60" height="30" as="geometry" />
        </mxCell>
        <mxCell id="zIQO2QtqG7fg5_mSGysL-35" value="(1, n)" style="text;html=1;align=center;verticalAlign=middle;whiteSpace=wrap;rounded=0;" parent="1" vertex="1">
          <mxGeometry x="534" y="354" width="60" height="30" as="geometry" />
        </mxCell>
        <mxCell id="zIQO2QtqG7fg5_mSGysL-36" style="edgeStyle=orthogonalEdgeStyle;rounded=0;orthogonalLoop=1;jettySize=auto;html=1;entryX=0;entryY=0.5;entryDx=0;entryDy=0;endArrow=none;endFill=0;" parent="1" source="zIQO2QtqG7fg5_mSGysL-37" target="zIQO2QtqG7fg5_mSGysL-40" edge="1">
          <mxGeometry relative="1" as="geometry" />
        </mxCell>
        <mxCell id="zIQO2QtqG7fg5_mSGysL-37" value="FACTURA" style="rounded=0;whiteSpace=wrap;html=1;" parent="1" vertex="1">
          <mxGeometry x="111" y="845" width="140" height="60" as="geometry" />
        </mxCell>
        <mxCell id="zIQO2QtqG7fg5_mSGysL-38" value="PRODUCTO" style="rounded=0;whiteSpace=wrap;html=1;" parent="1" vertex="1">
          <mxGeometry x="601" y="845" width="120" height="60" as="geometry" />
        </mxCell>
        <mxCell id="zIQO2QtqG7fg5_mSGysL-39" style="edgeStyle=orthogonalEdgeStyle;rounded=0;orthogonalLoop=1;jettySize=auto;html=1;entryX=0;entryY=0.5;entryDx=0;entryDy=0;endArrow=none;endFill=0;" parent="1" source="zIQO2QtqG7fg5_mSGysL-40" target="zIQO2QtqG7fg5_mSGysL-38" edge="1">
          <mxGeometry relative="1" as="geometry" />
        </mxCell>
        <mxCell id="zIQO2QtqG7fg5_mSGysL-40" value="almacenar" style="rhombus;whiteSpace=wrap;html=1;rounded=0;" parent="1" vertex="1">
          <mxGeometry x="361" y="835" width="120" height="80" as="geometry" />
        </mxCell>
        <mxCell id="zIQO2QtqG7fg5_mSGysL-41" value="" style="endArrow=none;html=1;rounded=0;entryX=0;entryY=0.5;entryDx=0;entryDy=0;" parent="1" edge="1">
          <mxGeometry width="50" height="50" relative="1" as="geometry">
            <mxPoint x="421" y="835" as="sourcePoint" />
            <mxPoint x="421" y="805" as="targetPoint" />
          </mxGeometry>
        </mxCell>
        <mxCell id="zIQO2QtqG7fg5_mSGysL-43" value="" style="endArrow=none;html=1;rounded=0;entryX=0;entryY=0.5;entryDx=0;entryDy=0;" parent="1" edge="1">
          <mxGeometry width="50" height="50" relative="1" as="geometry">
            <mxPoint x="112" y="845" as="sourcePoint" />
            <mxPoint x="112" y="815" as="targetPoint" />
          </mxGeometry>
        </mxCell>
        <mxCell id="zIQO2QtqG7fg5_mSGysL-45" value="" style="endArrow=none;html=1;rounded=0;entryX=0;entryY=0.5;entryDx=0;entryDy=0;" parent="1" edge="1">
          <mxGeometry width="50" height="50" relative="1" as="geometry">
            <mxPoint x="147" y="845" as="sourcePoint" />
            <mxPoint x="147" y="815" as="targetPoint" />
          </mxGeometry>
        </mxCell>
        <mxCell id="zIQO2QtqG7fg5_mSGysL-47" value="" style="endArrow=none;html=1;rounded=0;entryX=0;entryY=0.5;entryDx=0;entryDy=0;" parent="1" edge="1">
          <mxGeometry width="50" height="50" relative="1" as="geometry">
            <mxPoint x="182" y="845" as="sourcePoint" />
            <mxPoint x="182" y="815" as="targetPoint" />
          </mxGeometry>
        </mxCell>
        <mxCell id="zIQO2QtqG7fg5_mSGysL-49" value="" style="endArrow=none;html=1;rounded=0;entryX=0;entryY=0.5;entryDx=0;entryDy=0;" parent="1" edge="1">
          <mxGeometry width="50" height="50" relative="1" as="geometry">
            <mxPoint x="216" y="845" as="sourcePoint" />
            <mxPoint x="216" y="815" as="targetPoint" />
          </mxGeometry>
        </mxCell>
        <mxCell id="zIQO2QtqG7fg5_mSGysL-51" value="" style="endArrow=none;html=1;rounded=0;entryX=0;entryY=0.5;entryDx=0;entryDy=0;" parent="1" edge="1">
          <mxGeometry width="50" height="50" relative="1" as="geometry">
            <mxPoint x="250" y="845" as="sourcePoint" />
            <mxPoint x="250" y="815" as="targetPoint" />
          </mxGeometry>
        </mxCell>
        <mxCell id="zIQO2QtqG7fg5_mSGysL-53" value="" style="endArrow=none;html=1;rounded=0;entryX=0;entryY=0.5;entryDx=0;entryDy=0;" parent="1" edge="1">
          <mxGeometry width="50" height="50" relative="1" as="geometry">
            <mxPoint x="601" y="935" as="sourcePoint" />
            <mxPoint x="601" y="905" as="targetPoint" />
          </mxGeometry>
        </mxCell>
        <mxCell id="zIQO2QtqG7fg5_mSGysL-55" value="" style="endArrow=none;html=1;rounded=0;entryX=0;entryY=0.5;entryDx=0;entryDy=0;" parent="1" edge="1">
          <mxGeometry width="50" height="50" relative="1" as="geometry">
            <mxPoint x="636" y="935" as="sourcePoint" />
            <mxPoint x="636" y="905" as="targetPoint" />
          </mxGeometry>
        </mxCell>
        <mxCell id="zIQO2QtqG7fg5_mSGysL-57" value="" style="endArrow=none;html=1;rounded=0;entryX=0;entryY=0.5;entryDx=0;entryDy=0;" parent="1" edge="1">
          <mxGeometry width="50" height="50" relative="1" as="geometry">
            <mxPoint x="672" y="935" as="sourcePoint" />
            <mxPoint x="672" y="905" as="targetPoint" />
          </mxGeometry>
        </mxCell>
        <mxCell id="zIQO2QtqG7fg5_mSGysL-59" value="&lt;font style=&quot;font-size: 14px;&quot;&gt;N : M&lt;/font&gt;" style="text;html=1;align=center;verticalAlign=middle;whiteSpace=wrap;rounded=0;" parent="1" vertex="1">
          <mxGeometry x="386" y="915" width="70" height="40" as="geometry" />
        </mxCell>
        <mxCell id="zIQO2QtqG7fg5_mSGysL-60" value="(0, 1)" style="text;html=1;align=center;verticalAlign=middle;whiteSpace=wrap;rounded=0;" parent="1" vertex="1">
          <mxGeometry x="261" y="835" width="60" height="30" as="geometry" />
        </mxCell>
        <mxCell id="zIQO2QtqG7fg5_mSGysL-61" value="(1, n)" style="text;html=1;align=center;verticalAlign=middle;whiteSpace=wrap;rounded=0;" parent="1" vertex="1">
          <mxGeometry x="531" y="835" width="60" height="30" as="geometry" />
        </mxCell>
        <mxCell id="_AfUfkM7JY_zOvTRJxWH-5" value="&lt;font style=&quot;font-size: 18px;&quot;&gt;&lt;b&gt;DB Tienda&lt;/b&gt;&lt;/font&gt;" style="text;html=1;align=center;verticalAlign=middle;whiteSpace=wrap;rounded=0;" parent="1" vertex="1">
          <mxGeometry x="54" y="90" width="96" height="30" as="geometry" />
        </mxCell>
        <mxCell id="_AfUfkM7JY_zOvTRJxWH-6" value="" style="endArrow=none;html=1;rounded=0;entryX=0;entryY=0.5;entryDx=0;entryDy=0;" parent="1" target="_AfUfkM7JY_zOvTRJxWH-7" edge="1">
          <mxGeometry width="50" height="50" relative="1" as="geometry">
            <mxPoint x="395" y="370" as="sourcePoint" />
            <mxPoint x="395" y="345" as="targetPoint" />
          </mxGeometry>
        </mxCell>
        <mxCell id="_AfUfkM7JY_zOvTRJxWH-7" value="&lt;b&gt;&lt;u&gt;num_linea_factura&lt;/u&gt;&lt;/b&gt;" style="ellipse;whiteSpace=wrap;html=1;rotation=-90;" parent="1" vertex="1">
          <mxGeometry x="320" y="260" width="130" height="30" as="geometry" />
        </mxCell>
        <mxCell id="_AfUfkM7JY_zOvTRJxWH-8" value="" style="endArrow=none;html=1;rounded=0;entryX=0;entryY=0.5;entryDx=0;entryDy=0;" parent="1" target="_AfUfkM7JY_zOvTRJxWH-9" edge="1">
          <mxGeometry width="50" height="50" relative="1" as="geometry">
            <mxPoint x="426" y="352" as="sourcePoint" />
            <mxPoint x="426" y="327" as="targetPoint" />
          </mxGeometry>
        </mxCell>
        <mxCell id="_AfUfkM7JY_zOvTRJxWH-9" value="cantidad_producto" style="ellipse;whiteSpace=wrap;html=1;rotation=-90;" parent="1" vertex="1">
          <mxGeometry x="361.5" y="242.5" width="129" height="30" as="geometry" />
        </mxCell>
        <mxCell id="_AfUfkM7JY_zOvTRJxWH-10" value="" style="endArrow=none;html=1;rounded=0;entryX=0;entryY=0.5;entryDx=0;entryDy=0;" parent="1" target="_AfUfkM7JY_zOvTRJxWH-11" edge="1">
          <mxGeometry width="50" height="50" relative="1" as="geometry">
            <mxPoint x="455" y="370" as="sourcePoint" />
            <mxPoint x="455" y="345" as="targetPoint" />
          </mxGeometry>
        </mxCell>
        <mxCell id="_AfUfkM7JY_zOvTRJxWH-11" value="importe_linea" style="ellipse;whiteSpace=wrap;html=1;rotation=-90;dashed=1;" parent="1" vertex="1">
          <mxGeometry x="401.25" y="257.25" width="135.5" height="30" as="geometry" />
        </mxCell>
        <mxCell id="ifiog1y3GqQ29FpL154u-1" value="" style="endArrow=none;html=1;rounded=0;entryX=0;entryY=0.5;entryDx=0;entryDy=0;" parent="1" edge="1">
          <mxGeometry width="50" height="50" relative="1" as="geometry">
            <mxPoint x="711" y="455" as="sourcePoint" />
            <mxPoint x="711" y="425" as="targetPoint" />
          </mxGeometry>
        </mxCell>
        <mxCell id="ifiog1y3GqQ29FpL154u-2" value="&lt;span style=&quot;font-family: Arial; text-align: left; white-space-collapse: preserve; background-color: rgb(255, 255, 255);&quot;&gt;&lt;font style=&quot;font-size: 11px;&quot;&gt;articulos_por_producto&lt;/font&gt;&lt;/span&gt;" style="ellipse;whiteSpace=wrap;html=1;rotation=-90;" parent="1" vertex="1">
          <mxGeometry x="643" y="508" width="136" height="30" as="geometry" />
        </mxCell>
        <mxCell id="2IwcuPVNw8esXmN2UqxO-1" value="" style="ellipse;whiteSpace=wrap;html=1;aspect=fixed;fillColor=#000000;" parent="1" vertex="1">
          <mxGeometry x="102" y="794" width="20" height="20" as="geometry" />
        </mxCell>
        <mxCell id="2IwcuPVNw8esXmN2UqxO-2" value="" style="ellipse;whiteSpace=wrap;html=1;aspect=fixed;fillColor=none;" parent="1" vertex="1">
          <mxGeometry x="136" y="794" width="20" height="20" as="geometry" />
        </mxCell>
        <mxCell id="2IwcuPVNw8esXmN2UqxO-3" value="" style="ellipse;whiteSpace=wrap;html=1;aspect=fixed;fillColor=none;" parent="1" vertex="1">
          <mxGeometry x="172" y="794" width="20" height="20" as="geometry" />
        </mxCell>
        <mxCell id="2IwcuPVNw8esXmN2UqxO-4" value="" style="ellipse;whiteSpace=wrap;html=1;aspect=fixed;fillColor=none;" parent="1" vertex="1">
          <mxGeometry x="206" y="794" width="20" height="20" as="geometry" />
        </mxCell>
        <mxCell id="2IwcuPVNw8esXmN2UqxO-5" value="" style="ellipse;whiteSpace=wrap;html=1;aspect=fixed;fillColor=none;" parent="1" vertex="1">
          <mxGeometry x="240" y="794" width="20" height="20" as="geometry" />
        </mxCell>
        <mxCell id="2IwcuPVNw8esXmN2UqxO-6" value="" style="ellipse;whiteSpace=wrap;html=1;aspect=fixed;fillColor=none;" parent="1" vertex="1">
          <mxGeometry x="411" y="785" width="20" height="20" as="geometry" />
        </mxCell>
        <mxCell id="2IwcuPVNw8esXmN2UqxO-7" value="" style="ellipse;whiteSpace=wrap;html=1;aspect=fixed;fillColor=#000000;" parent="1" vertex="1">
          <mxGeometry x="591" y="935" width="20" height="20" as="geometry" />
        </mxCell>
        <mxCell id="2IwcuPVNw8esXmN2UqxO-8" value="" style="ellipse;whiteSpace=wrap;html=1;aspect=fixed;fillColor=none;" parent="1" vertex="1">
          <mxGeometry x="626" y="936" width="20" height="20" as="geometry" />
        </mxCell>
        <mxCell id="2IwcuPVNw8esXmN2UqxO-9" value="" style="ellipse;whiteSpace=wrap;html=1;aspect=fixed;fillColor=none;" parent="1" vertex="1">
          <mxGeometry x="663" y="937" width="20" height="20" as="geometry" />
        </mxCell>
        <mxCell id="2IwcuPVNw8esXmN2UqxO-11" value="" style="endArrow=none;html=1;rounded=0;entryX=0;entryY=0.5;entryDx=0;entryDy=0;" parent="1" edge="1">
          <mxGeometry width="50" height="50" relative="1" as="geometry">
            <mxPoint x="710" y="936" as="sourcePoint" />
            <mxPoint x="710" y="906" as="targetPoint" />
          </mxGeometry>
        </mxCell>
        <mxCell id="2IwcuPVNw8esXmN2UqxO-12" value="" style="ellipse;whiteSpace=wrap;html=1;aspect=fixed;fillColor=none;" parent="1" vertex="1">
          <mxGeometry x="701" y="938" width="20" height="20" as="geometry" />
        </mxCell>
        <mxCell id="2IwcuPVNw8esXmN2UqxO-13" value="" style="endArrow=none;html=1;rounded=0;entryX=0;entryY=0.5;entryDx=0;entryDy=0;" parent="1" edge="1">
          <mxGeometry width="50" height="50" relative="1" as="geometry">
            <mxPoint x="376" y="864" as="sourcePoint" />
            <mxPoint x="376" y="834" as="targetPoint" />
          </mxGeometry>
        </mxCell>
        <mxCell id="2IwcuPVNw8esXmN2UqxO-14" value="" style="ellipse;whiteSpace=wrap;html=1;aspect=fixed;fillColor=#000000;strokeColor=#000000;" parent="1" vertex="1">
          <mxGeometry x="366" y="814" width="20" height="20" as="geometry" />
        </mxCell>
        <mxCell id="2IwcuPVNw8esXmN2UqxO-15" value="" style="endArrow=none;html=1;rounded=0;entryX=0;entryY=0.5;entryDx=0;entryDy=0;" parent="1" edge="1">
          <mxGeometry width="50" height="50" relative="1" as="geometry">
            <mxPoint x="466" y="865" as="sourcePoint" />
            <mxPoint x="466" y="835" as="targetPoint" />
          </mxGeometry>
        </mxCell>
        <mxCell id="2IwcuPVNw8esXmN2UqxO-16" value="" style="ellipse;whiteSpace=wrap;html=1;aspect=fixed;fillColor=none;" parent="1" vertex="1">
          <mxGeometry x="456" y="815" width="20" height="20" as="geometry" />
        </mxCell>
        <mxCell id="2IwcuPVNw8esXmN2UqxO-19" value="articulos_por_producto" style="text;html=1;align=center;verticalAlign=middle;whiteSpace=wrap;rounded=0;rotation=-90;" parent="1" vertex="1">
          <mxGeometry x="643" y="1010" width="135" height="30" as="geometry" />
        </mxCell>
        <mxCell id="2IwcuPVNw8esXmN2UqxO-20" value="precio_unitario" style="text;html=1;align=right;verticalAlign=middle;whiteSpace=wrap;rounded=0;rotation=-90;" parent="1" vertex="1">
          <mxGeometry x="604" y="1010" width="135" height="30" as="geometry" />
        </mxCell>
        <mxCell id="2IwcuPVNw8esXmN2UqxO-21" value="nombre_producto" style="text;html=1;align=right;verticalAlign=middle;whiteSpace=wrap;rounded=0;rotation=-90;" parent="1" vertex="1">
          <mxGeometry x="566" y="1010" width="135" height="30" as="geometry" />
        </mxCell>
        <mxCell id="2IwcuPVNw8esXmN2UqxO-22" value="&lt;b&gt;&lt;u&gt;cod_producto&lt;/u&gt;&lt;/b&gt;" style="text;html=1;align=right;verticalAlign=middle;whiteSpace=wrap;rounded=0;rotation=-90;" parent="1" vertex="1">
          <mxGeometry x="533.5" y="1010" width="135" height="30" as="geometry" />
        </mxCell>
        <mxCell id="2IwcuPVNw8esXmN2UqxO-23" value="importe_linea" style="text;html=1;align=left;verticalAlign=middle;whiteSpace=wrap;rounded=0;rotation=-90;" parent="1" vertex="1">
          <mxGeometry x="398.5" y="730" width="135" height="30" as="geometry" />
        </mxCell>
        <mxCell id="2IwcuPVNw8esXmN2UqxO-24" value="cantidad_producto" style="text;html=1;align=left;verticalAlign=middle;whiteSpace=wrap;rounded=0;rotation=-90;" parent="1" vertex="1">
          <mxGeometry x="353.5" y="700" width="135" height="30" as="geometry" />
        </mxCell>
        <mxCell id="2IwcuPVNw8esXmN2UqxO-25" value="&lt;u&gt;&lt;b&gt;num_linea_factura&lt;/b&gt;&lt;/u&gt;" style="text;html=1;align=left;verticalAlign=middle;whiteSpace=wrap;rounded=0;rotation=-90;" parent="1" vertex="1">
          <mxGeometry x="308" y="730" width="135" height="30" as="geometry" />
        </mxCell>
        <mxCell id="2IwcuPVNw8esXmN2UqxO-26" value="articulos_por_producto" style="text;html=1;align=left;verticalAlign=middle;whiteSpace=wrap;rounded=0;rotation=-90;" parent="1" vertex="1">
          <mxGeometry x="182.5" y="710" width="135" height="30" as="geometry" />
        </mxCell>
        <mxCell id="2IwcuPVNw8esXmN2UqxO-27" value="fecha_factura" style="text;html=1;align=left;verticalAlign=middle;whiteSpace=wrap;rounded=0;rotation=-90;" parent="1" vertex="1">
          <mxGeometry x="148.5" y="710" width="135" height="30" as="geometry" />
        </mxCell>
        <mxCell id="2IwcuPVNw8esXmN2UqxO-28" value="nombre_cliente" style="text;html=1;align=left;verticalAlign=middle;whiteSpace=wrap;rounded=0;rotation=-90;" parent="1" vertex="1">
          <mxGeometry x="113.5" y="710" width="135" height="30" as="geometry" />
        </mxCell>
        <mxCell id="2IwcuPVNw8esXmN2UqxO-29" value="dni_cliente" style="text;html=1;align=left;verticalAlign=middle;whiteSpace=wrap;rounded=0;rotation=-90;" parent="1" vertex="1">
          <mxGeometry x="78.5" y="710" width="135" height="30" as="geometry" />
        </mxCell>
        <mxCell id="2IwcuPVNw8esXmN2UqxO-30" value="&lt;b&gt;&lt;u&gt;num_factura&lt;/u&gt;&lt;/b&gt;" style="text;html=1;align=left;verticalAlign=middle;whiteSpace=wrap;rounded=0;rotation=-90;" parent="1" vertex="1">
          <mxGeometry x="44.5" y="710" width="135" height="30" as="geometry" />
        </mxCell>
        <mxCell id="2IwcuPVNw8esXmN2UqxO-31" value="&lt;font style=&quot;font-size: 14px;&quot;&gt;Diagrama Peter Chen&lt;/font&gt;" style="text;html=1;align=center;verticalAlign=middle;whiteSpace=wrap;rounded=0;fontStyle=4" parent="1" vertex="1">
          <mxGeometry x="357" y="140" width="138" height="30" as="geometry" />
        </mxCell>
        <mxCell id="2IwcuPVNw8esXmN2UqxO-32" value="&lt;font style=&quot;font-size: 14px;&quot;&gt;Diagrama Miguel et al&lt;/font&gt;" style="text;html=1;align=center;verticalAlign=middle;whiteSpace=wrap;rounded=0;fontStyle=4" parent="1" vertex="1">
          <mxGeometry x="347" y="630" width="148" height="30" as="geometry" />
        </mxCell>
      </root>
    </mxGraphModel>
  </diagram>
</mxfile>
